<svg version="1.1" id="Layer_1" xmlns="http://www.w3.org/2000/svg" xmlns:xlink="http://www.w3.org/1999/xlink" x="0px" y="0px"
	 width="100%" viewBox="0 0 512 512" enable-background="new 0 0 512 512" xml:space="preserve">
<path fill="#000000" opacity="1.000000" stroke="none" 
	d="
M513.000000,299.000000 
	C513.000000,370.260345 513.000000,441.520721 513.000000,513.000000 
	C441.979248,513.000000 370.958282,513.000000 299.122375,512.690796 
	C302.196259,510.923553 306.057526,508.329498 309.979462,508.234192 
	C319.319336,508.007294 327.592560,504.245850 336.280243,501.859192 
	C339.174530,501.064056 342.086334,500.194519 344.818115,498.973907 
	C351.196991,496.123840 357.535614,493.167114 363.772247,490.019196 
	C371.576172,486.080292 379.261597,481.906586 387.398621,477.905731 
	C388.761017,477.859161 389.980011,478.079102 390.646545,477.572388 
	C401.183777,469.561981 411.600159,461.392242 422.154541,453.404755 
	C427.171875,449.607635 432.397064,446.093597 435.064087,440.065125 
	C435.038940,440.054779 435.061462,440.104187 435.429199,440.058960 
	C436.906189,439.024261 438.015472,438.034760 439.431427,436.916992 
	C443.189880,433.539886 446.641663,430.291107 450.333466,426.972534 
	C450.878174,426.705322 451.037964,426.425232 451.036774,426.038391 
	C451.020721,426.014252 451.066895,426.051392 451.390564,425.894989 
	C454.274109,422.193817 456.860565,418.667908 459.387909,415.100128 
	C463.625946,409.117371 467.826324,403.107880 472.294373,397.017029 
	C472.639496,396.615143 472.732819,396.305878 472.960938,395.700073 
	C474.090485,394.285309 475.085266,393.167053 476.419678,391.891724 
	C478.577393,389.065125 477.868439,384.563446 482.512756,383.844208 
	C482.807495,383.798553 482.740997,382.031006 483.015167,381.116272 
	C483.606110,379.144714 484.163483,377.141541 485.001099,375.270630 
	C486.253784,372.472626 487.735962,369.777405 489.408173,366.883789 
	C489.816589,365.409546 489.546509,363.871490 490.137299,362.814606 
	C491.477173,360.417786 493.240936,358.257904 494.944336,355.727325 
	C495.317657,354.968231 495.579041,354.483521 495.904602,353.748596 
	C495.921570,353.332855 495.874329,353.167267 495.897186,352.606201 
	C496.328094,349.700775 496.962769,347.721619 499.632965,346.239685 
	C500.670837,345.663696 499.546997,341.842804 500.150635,339.710266 
	C501.838379,333.747833 503.914062,327.895233 505.910034,321.618042 
	C507.444275,313.893890 508.882233,306.546143 510.421570,299.219666 
	C510.515930,298.770599 511.411774,298.489899 512.012939,298.378296 
	C512.394104,298.750458 512.697083,298.875244 513.000000,299.000000 
z"/>
<path fill="#000000" opacity="1.000000" stroke="none" 
	d="
M299.000000,0.999999 
	C370.260345,1.000000 441.520721,1.000000 513.000000,1.000000 
	C513.000000,72.020744 513.000000,143.041718 512.675659,214.591476 
	C511.599152,214.095398 510.847046,213.070541 510.398987,211.853790 
	C509.470306,206.191116 508.476685,200.651810 506.933838,195.269958 
	C505.545288,190.426254 503.554352,185.755234 501.899475,180.612045 
	C498.956757,169.724930 495.776733,159.299454 490.025543,149.480804 
	C489.790771,147.987061 489.846832,146.728622 489.309570,145.821671 
	C487.325409,142.472153 485.019135,139.311798 483.068359,135.944534 
	C480.218445,131.025314 477.570862,125.988892 474.905426,120.662262 
	C474.355896,119.866714 473.737976,119.411324 473.065918,118.653336 
	C472.712463,117.883636 472.413116,117.416534 472.060547,116.586777 
	C470.107880,113.719254 468.218262,111.206871 466.307190,108.710922 
	C460.222565,100.764122 454.129974,92.823448 447.907593,84.569832 
	C445.531525,82.465416 443.288330,80.671593 440.907959,78.562866 
	C437.821259,75.299728 434.989502,72.221031 431.897491,69.430710 
	C425.690613,63.829536 419.341705,58.385788 412.912781,52.566860 
	C410.188171,50.841175 407.428070,49.667355 405.054291,47.957336 
	C400.773621,44.873688 396.961975,41.090637 392.516327,38.296844 
	C387.252899,34.989128 381.543030,32.385712 375.995300,29.538097 
	C369.710724,26.312269 363.253937,23.393187 357.138641,19.877033 
	C353.460846,17.762394 348.180206,18.842974 345.797699,14.037174 
	C345.471313,13.378772 343.496246,13.443098 342.271271,13.353487 
	C341.213409,13.276104 339.955444,13.853557 339.095886,13.461705 
	C327.967621,8.388527 315.863495,6.957663 304.201294,3.886535 
	C302.343018,3.397175 300.727661,1.985350 299.000000,0.999999 
z"/>
<path fill="#000000" opacity="1.000000" stroke="none" 
	d="
M0.999995,215.000000 
	C1.000000,143.739624 1.000000,72.479256 1.000000,1.000000 
	C72.020744,1.000000 143.041718,1.000000 214.853119,1.318783 
	C211.226883,3.090054 206.866592,4.760088 202.375244,5.924538 
	C198.931580,6.817363 195.333832,7.166945 191.784668,7.591335 
	C184.138306,8.505647 177.959183,15.204368 169.533981,13.201288 
	C168.879776,13.045752 167.885559,14.092854 167.121689,14.675770 
	C165.746078,15.725546 164.575211,17.470758 163.056808,17.835850 
	C154.302383,19.940807 146.745651,24.394875 139.027176,28.793436 
	C134.618973,31.305548 129.579834,32.496231 125.388504,35.867966 
	C120.852249,39.517181 115.421074,42.036781 110.523514,45.266365 
	C109.332222,46.051937 108.931450,47.992439 107.766823,48.871387 
	C105.278893,50.749023 102.529030,52.279587 99.538925,53.977303 
	C92.112816,60.628128 85.034264,67.253990 77.574791,73.930267 
	C76.088646,75.305656 74.983421,76.630623 73.649536,78.020447 
	C73.128281,78.269081 72.972710,78.533493 72.646088,79.015869 
	C70.211800,81.062332 68.085579,82.971451 65.656830,85.010025 
	C64.164131,87.004692 63.167793,89.035194 61.745747,90.702660 
	C58.154732,94.913391 54.084774,98.742439 50.747608,103.135323 
	C47.447411,107.479538 44.809685,112.327026 41.599503,117.074524 
	C41.171669,117.782249 41.025692,118.369202 40.521637,118.981384 
	C39.388607,120.336769 38.613655,121.666931 37.514568,123.148140 
	C33.453655,129.909668 29.612404,136.464462 26.043232,143.164230 
	C24.960821,145.196045 24.630541,147.628571 23.657328,150.012039 
	C22.816971,150.493622 21.637960,150.516357 20.962997,151.842163 
	C19.767620,154.190216 19.370918,158.513351 17.869160,162.362534 
	C16.871531,164.919556 14.097885,166.865509 13.391558,169.434784 
	C12.377013,173.125214 12.521149,177.134186 11.979237,181.343719 
	C11.201928,182.148743 10.225634,182.525223 10.090244,183.099838 
	C8.649526,189.214493 7.361985,195.365021 5.989426,201.496063 
	C5.361792,204.299606 4.638976,207.081863 3.712204,209.965607 
	C3.367378,210.360214 3.269675,210.662979 3.111663,211.227570 
	C3.091790,211.663925 3.132226,211.838425 3.095481,212.430389 
	C2.345531,213.565231 1.672761,214.282608 0.999995,215.000000 
z"/>
<path fill="#000000" opacity="1.000000" stroke="none" 
	d="
M210.000000,513.000000 
	C140.405441,513.000000 70.810890,513.000000 1.000000,513.000000 
	C1.000000,441.979248 1.000000,370.958282 1.258155,299.469116 
	C1.679997,298.947784 1.843684,298.894623 2.367105,299.049072 
	C4.112575,304.523712 5.498312,309.790710 6.936751,315.382996 
	C7.048026,316.141998 7.106599,316.575653 7.094936,317.406067 
	C7.107000,319.640900 6.728278,321.662262 7.370546,323.277710 
	C8.590775,326.346832 10.395282,329.183716 11.974363,332.506653 
	C12.620994,334.944092 13.250384,336.991913 13.930824,339.453735 
	C14.082112,341.506897 13.741361,343.337433 14.355801,344.753510 
	C17.759987,352.599213 21.396564,360.344055 24.982124,368.495178 
	C29.657415,376.950226 34.304131,385.033508 38.975967,393.457642 
	C39.647434,394.232147 40.293781,394.665802 40.956326,395.063293 
	C40.972523,395.027130 40.900146,395.059479 40.944492,395.432495 
	C41.314983,396.690613 41.489094,397.675629 41.993896,398.443207 
	C44.051685,401.572174 46.216480,404.630615 48.330765,407.722626 
	C50.401138,410.750366 52.281235,413.928986 54.567463,416.782928 
	C57.179188,420.043243 60.147007,423.018280 63.086899,426.427582 
	C66.768669,429.840027 70.323624,432.942169 73.931549,436.412048 
	C75.372345,438.007355 76.760162,439.234863 78.161858,440.441620 
	C78.175743,440.420837 78.148766,440.464569 78.357513,440.747009 
	C85.888763,447.698181 93.142792,454.444427 100.565186,461.000061 
	C103.853348,463.904266 107.482109,466.422852 111.112785,469.433228 
	C121.568764,475.706055 131.688309,482.007874 142.232422,487.493683 
	C148.987930,491.008423 156.392288,493.264740 163.464447,496.185303 
	C170.472641,499.079407 177.259857,502.639465 184.461380,504.893463 
	C190.272598,506.712280 196.650497,506.652252 202.588089,508.166473 
	C205.293655,508.856445 207.543472,511.333496 210.000000,513.000000 
z"/>
<path fill="#F9AD15" opacity="1.000000" stroke="none" 
	d="
M99.886482,53.952339 
	C102.529030,52.279587 105.278893,50.749023 107.766823,48.871387 
	C108.931450,47.992439 109.332222,46.051937 110.523514,45.266365 
	C115.421074,42.036781 120.852249,39.517181 125.388504,35.867966 
	C129.579834,32.496231 134.618973,31.305548 139.027176,28.793436 
	C146.745651,24.394875 154.302383,19.940807 163.056808,17.835850 
	C164.575211,17.470758 165.746078,15.725546 167.121689,14.675770 
	C167.885559,14.092854 168.879776,13.045752 169.533981,13.201288 
	C177.959183,15.204368 184.138306,8.505647 191.784668,7.591335 
	C195.333832,7.166945 198.931580,6.817363 202.375244,5.924538 
	C206.866592,4.760088 211.226883,3.090054 215.321777,1.318783 
	C242.687561,1.000000 270.375122,1.000000 298.531342,0.999999 
	C300.727661,1.985350 302.343018,3.397175 304.201294,3.886535 
	C315.863495,6.957663 327.967621,8.388527 339.095886,13.461705 
	C339.955444,13.853557 341.213409,13.276104 342.271271,13.353487 
	C343.496246,13.443098 345.471313,13.378772 345.797699,14.037174 
	C348.180206,18.842974 353.460846,17.762394 357.138641,19.877033 
	C363.253937,23.393187 369.710724,26.312269 375.995300,29.538097 
	C381.543030,32.385712 387.252899,34.989128 392.516327,38.296844 
	C396.961975,41.090637 400.773621,44.873688 405.054291,47.957336 
	C407.428070,49.667355 410.188171,50.841175 412.718658,52.895218 
	C410.124146,54.355824 407.585999,55.893551 405.045990,55.896679 
	C306.354309,56.018326 207.662415,56.018112 108.970673,55.913898 
	C105.941925,55.910702 102.914513,54.634853 99.886482,53.952339 
z"/>
<path fill="#FAB933" opacity="1.000000" stroke="none" 
	d="
M1.000000,271.000000 
	C1.000000,253.645767 1.000000,236.291550 1.377157,218.492203 
	C2.624007,218.462784 4.131057,218.733429 4.263846,219.316849 
	C5.464646,224.592484 9.514565,224.009369 13.343944,224.003494 
	C21.158464,223.991562 28.980371,224.220749 36.786255,223.960770 
	C66.441612,222.973068 96.188728,226.296982 125.847168,222.467392 
	C125.857765,224.478088 125.793854,226.090393 125.402924,227.945007 
	C125.287613,229.532181 125.499313,230.877045 125.806122,232.646759 
	C125.901222,236.183487 125.901222,239.295410 125.901222,243.133743 
	C136.970779,243.133743 147.500244,243.133743 158.027924,243.593597 
	C158.023544,248.532257 158.151077,253.015961 157.982193,257.488464 
	C157.809540,262.061279 157.346146,266.623138 156.542603,271.135681 
	C150.948395,271.059326 145.817963,270.908264 140.695923,271.053284 
	C136.133148,271.182526 131.579636,271.639496 126.776421,272.138550 
	C126.275185,272.880615 126.019569,273.435944 125.363983,273.993286 
	C117.092506,274.663513 109.225288,275.841827 101.348717,275.908081 
	C73.356895,276.143555 45.361862,276.021454 17.368122,275.982727 
	C11.441555,275.974518 4.981485,277.493774 1.000000,271.000000 
z"/>
<path fill="#FBC754" opacity="1.000000" stroke="none" 
	d="
M210.468658,513.000000 
	C207.543472,511.333496 205.293655,508.856445 202.588089,508.166473 
	C196.650497,506.652252 190.272598,506.712280 184.461380,504.893463 
	C177.259857,502.639465 170.472641,499.079407 163.464447,496.185303 
	C156.392288,493.264740 148.987930,491.008423 142.232422,487.493683 
	C131.688309,482.007874 121.568764,475.706055 111.137634,469.100769 
	C111.607971,465.253418 112.910339,466.945282 114.384567,467.841248 
	C121.024117,471.876343 127.271469,475.336426 135.986862,475.284485 
	C216.798248,474.802979 297.613678,474.999817 378.427917,475.001648 
	C380.093994,475.001678 381.871948,474.668030 383.392670,475.144501 
	C384.742859,475.567627 385.807495,476.902039 386.998169,477.834229 
	C379.261597,481.906586 371.576172,486.080292 363.772247,490.019196 
	C357.535614,493.167114 351.196991,496.123840 344.818115,498.973907 
	C342.086334,500.194519 339.174530,501.064056 336.280243,501.859192 
	C327.592560,504.245850 319.319336,508.007294 309.979462,508.234192 
	C306.057526,508.329498 302.196259,510.923553 298.653717,512.690796 
	C269.645782,513.000000 240.291550,513.000000 210.468658,513.000000 
z"/>
<path fill="#FABC3A" opacity="1.000000" stroke="none" 
	d="
M1.000000,271.468628 
	C4.981485,277.493774 11.441555,275.974518 17.368122,275.982727 
	C45.361862,276.021454 73.356895,276.143555 101.348717,275.908081 
	C109.225288,275.841827 117.092506,274.663513 125.457123,274.454529 
	C125.985962,283.510162 126.021690,292.106598 126.190201,300.951904 
	C126.563881,301.484070 126.804779,301.767334 127.381439,302.282318 
	C137.802658,302.673004 147.888123,302.831970 157.985931,303.392426 
	C157.975510,304.864716 157.952728,305.935486 157.569550,307.085327 
	C153.692459,308.403748 154.021210,311.382141 153.996017,314.220856 
	C153.935944,320.987549 153.926865,320.997467 147.064667,320.998291 
	C114.644318,321.002106 82.223961,321.000153 49.803608,320.999908 
	C39.163082,320.999847 28.519812,321.117798 17.884933,320.872437 
	C16.249756,320.834717 13.467808,319.338593 13.250307,318.145996 
	C12.441411,313.710663 10.278705,313.456360 6.884049,315.057709 
	C5.498312,309.790710 4.112575,304.523712 2.352528,298.735474 
	C1.652147,297.476135 1.326075,296.738068 1.000001,296.000000 
	C1.000000,287.979095 1.000000,279.958191 1.000000,271.468628 
z"/>
<path fill="#FAB62C" opacity="1.000000" stroke="none" 
	d="
M125.772644,222.069016 
	C96.188728,226.296982 66.441612,222.973068 36.786255,223.960770 
	C28.980371,224.220749 21.158464,223.991562 13.343944,224.003494 
	C9.514565,224.009369 5.464646,224.592484 4.263846,219.316849 
	C4.131057,218.733429 2.624007,218.462784 1.377157,218.023544 
	C1.000000,218.000000 1.000000,217.500000 1.373807,217.229980 
	C3.093444,216.028397 4.439272,215.096863 5.785101,214.165314 
	C4.914287,213.447861 4.043473,212.730392 3.172660,212.012939 
	C3.132226,211.838425 3.091790,211.663925 3.275105,211.070557 
	C3.695546,210.417953 3.849038,210.158646 3.959329,209.873764 
	C4.638976,207.081863 5.361792,204.299606 5.989426,201.496063 
	C7.361985,195.365021 8.649526,189.214493 10.090244,183.099838 
	C10.225634,182.525223 11.201928,182.148743 12.327931,181.424530 
	C16.272614,182.112518 19.673380,183.861221 23.082298,183.877258 
	C63.579758,184.067749 104.078491,184.030869 144.576721,183.956268 
	C149.043213,183.948044 153.508606,183.336090 157.984436,183.472260 
	C157.945724,194.073776 157.897064,204.207138 157.429596,214.474854 
	C146.843338,214.609177 136.675903,214.609177 126.283882,214.609177 
	C126.082649,217.545502 125.927643,219.807251 125.772644,222.069016 
z"/>
<path fill="#FABD3B" opacity="1.000000" stroke="none" 
	d="
M511.934723,298.130859 
	C511.411774,298.489899 510.515930,298.770599 510.421570,299.219666 
	C508.882233,306.546143 507.444275,313.893890 505.544342,321.650543 
	C501.764709,325.064362 497.738739,325.056458 493.543549,325.047729 
	C454.640930,324.966980 415.737946,325.041077 376.835510,324.928375 
	C373.420929,324.918488 370.009216,323.900604 366.721741,323.052002 
	C370.511963,315.822784 374.176697,308.892517 378.320312,301.970703 
	C387.179596,301.975342 395.561005,302.041168 403.939331,301.909180 
	C405.620026,301.882751 407.288879,301.103851 408.931519,300.479919 
	C408.899872,300.287994 409.093079,299.950348 409.325073,299.622803 
	C409.726196,295.865936 409.895355,292.436646 410.437805,289.089844 
	C413.178772,289.781403 415.544220,290.910095 417.914459,290.920288 
	C446.393127,291.042419 474.872589,291.027100 503.351532,290.946625 
	C505.712769,290.939941 508.071930,290.199677 510.432037,289.800262 
	C510.032410,289.298615 509.632782,288.796936 509.233154,288.295288 
	C510.488770,286.530182 511.744385,284.765106 513.000000,283.000000 
	C513.000000,287.024536 513.000000,291.049103 512.787720,295.755737 
	C512.361816,297.002197 512.148254,297.566528 511.934723,298.130859 
z"/>
<path fill="#FAB933" opacity="1.000000" stroke="none" 
	d="
M513.000000,235.000000 
	C513.000000,246.020889 513.000000,257.041779 512.604370,268.552612 
	C507.828491,269.695038 503.443451,270.940826 499.068573,270.906158 
	C464.007355,270.628418 428.883728,272.664673 393.920593,268.111450 
	C389.909363,267.589081 388.961578,265.998932 388.919617,262.431396 
	C388.887848,259.731903 390.397156,256.127167 385.949860,254.574066 
	C385.668243,250.590637 385.468323,247.032455 385.238403,242.940735 
	C389.514984,242.940735 393.279846,243.067215 397.032379,242.906311 
	C401.054199,242.733887 405.064392,242.291000 409.298584,241.731674 
	C409.699097,240.666473 409.880676,239.835739 410.404846,239.113953 
	C413.440948,240.148560 416.128723,241.859177 418.828766,241.878677 
	C446.291473,242.077118 473.756256,241.964890 501.220215,242.032593 
	C506.120453,242.044678 511.149109,242.719559 511.742889,235.702454 
	C511.765533,235.434769 512.563354,235.232666 513.000000,235.000000 
z"/>
<path fill="#FABB36" opacity="1.000000" stroke="none" 
	d="
M386.031525,254.999313 
	C390.397156,256.127167 388.887848,259.731903 388.919617,262.431396 
	C388.961578,265.998932 389.909363,267.589081 393.920593,268.111450 
	C428.883728,272.664673 464.007355,270.628418 499.068573,270.906158 
	C503.443451,270.940826 507.828491,269.695038 512.604370,269.021271 
	C513.000000,273.356903 513.000000,277.713806 513.000000,282.535339 
	C511.744385,284.765106 510.488770,286.530182 509.233154,288.295288 
	C509.632782,288.796936 510.032410,289.298615 510.432037,289.800262 
	C508.071930,290.199677 505.712769,290.939941 503.351532,290.946625 
	C474.872589,291.027100 446.393127,291.042419 417.914459,290.920288 
	C415.544220,290.910095 413.178772,289.781403 410.415894,288.623260 
	C409.707184,283.060974 409.393677,278.047821 408.797668,272.709839 
	C401.007629,272.218994 393.500092,272.052917 385.882629,271.719666 
	C385.606201,271.340759 385.410126,271.161255 385.139221,270.585968 
	C385.406433,265.105072 385.718994,260.052185 386.031525,254.999313 
z"/>
<path fill="#FAB830" opacity="1.000000" stroke="none" 
	d="
M513.000000,234.531586 
	C512.563354,235.232666 511.765533,235.434769 511.742889,235.702454 
	C511.149109,242.719559 506.120453,242.044678 501.220215,242.032593 
	C473.756256,241.964890 446.291473,242.077118 418.828766,241.878677 
	C416.128723,241.859177 413.440948,240.148560 410.383362,238.645187 
	C410.030396,231.046768 410.041473,224.026047 410.380859,217.113861 
	C412.659088,219.904358 414.440094,222.145355 418.551514,222.112793 
	C446.324493,221.892776 474.100128,222.027084 501.874756,221.973404 
	C507.999084,221.961563 508.821686,220.819641 507.518341,215.030914 
	C507.025787,212.843155 506.463959,210.649841 510.094940,212.045685 
	C510.847046,213.070541 511.599152,214.095398 512.675659,215.060135 
	C513.000000,221.354401 513.000000,227.708786 513.000000,234.531586 
z"/>
<path fill="#FAB933" opacity="1.000000" stroke="none" 
	d="
M3.095481,212.430389 
	C4.043473,212.730392 4.914287,213.447861 5.785101,214.165314 
	C4.439272,215.096863 3.093444,216.028397 1.373807,216.979980 
	C1.000000,216.555557 1.000000,216.111099 0.999995,215.333313 
	C1.672761,214.282608 2.345531,213.565231 3.095481,212.430389 
z"/>
<path fill="#FAB933" opacity="1.000000" stroke="none" 
	d="
M512.012939,298.378296 
	C512.148254,297.566528 512.361816,297.002197 512.787720,296.218933 
	C513.000000,296.750000 513.000000,297.500000 513.000000,298.625000 
	C512.697083,298.875244 512.394104,298.750458 512.012939,298.378296 
z"/>
<path fill="#FAB933" opacity="1.000000" stroke="none" 
	d="
M1.000001,296.375000 
	C1.326075,296.738068 1.652147,297.476135 1.992795,298.527832 
	C1.843684,298.894623 1.679997,298.947784 1.258155,299.000488 
	C1.000000,298.250000 1.000000,297.500000 1.000001,296.375000 
z"/>
<path fill="#FBC650" opacity="1.000000" stroke="none" 
	d="
M387.398621,477.905701 
	C385.807495,476.902039 384.742859,475.567627 383.392670,475.144501 
	C381.871948,474.668030 380.093994,475.001678 378.427917,475.001648 
	C297.613678,474.999817 216.798248,474.802979 135.986862,475.284485 
	C127.271469,475.336426 121.024117,471.876343 114.384567,467.841248 
	C112.910339,466.945282 111.607971,465.253418 110.981110,468.783997 
	C107.482109,466.422852 103.853348,463.904266 100.565186,461.000061 
	C93.142792,454.444427 85.888763,447.698181 78.812088,440.661194 
	C95.272461,440.861969 111.486008,441.887177 127.701714,441.922607 
	C206.277313,442.094147 284.854401,442.211731 363.428894,441.872314 
	C387.311371,441.769165 411.292847,444.076691 435.089203,440.075500 
	C432.397064,446.093597 427.171875,449.607635 422.154541,453.404755 
	C411.600159,461.392242 401.183777,469.561981 390.646545,477.572388 
	C389.980011,478.079102 388.761017,477.859161 387.398621,477.905701 
z"/>
<path fill="#FAC146" opacity="1.000000" stroke="none" 
	d="
M38.950844,393.116821 
	C34.304131,385.033508 29.657415,376.950226 25.060015,368.214661 
	C25.849171,367.582520 27.085352,367.341614 27.253881,367.662109 
	C29.527164,371.985382 33.407871,372.109924 37.564381,372.036255 
	C44.881248,371.906647 52.202236,371.967133 59.521179,372.007263 
	C72.250824,372.077057 84.980209,372.266541 97.709724,372.268799 
	C113.339005,372.271545 128.983932,371.714264 144.588699,372.295471 
	C149.705002,372.486053 153.964844,372.190613 157.933411,369.430756 
	C158.271210,372.234772 158.579559,374.616058 159.113098,377.035950 
	C159.338303,377.074554 159.792114,377.128326 160.140472,377.377472 
	C193.079269,377.688354 225.669769,377.806885 258.260071,377.769623 
	C265.872589,377.760925 273.511414,377.515778 281.086273,376.816925 
	C285.442169,376.415009 289.693970,374.884338 294.053955,374.243958 
	C294.759735,378.106079 296.250885,380.083191 300.388672,380.074738 
	C356.923889,379.959442 413.459503,380.015411 469.994812,379.919250 
	C472.012451,379.915833 474.453491,379.300873 475.963593,378.070526 
	C480.181732,374.633911 484.014130,370.723877 487.999390,367.000336 
	C488.000000,367.000000 488.000641,366.998779 488.280640,367.008453 
	C488.747284,367.024902 488.933929,367.031677 489.120544,367.038452 
	C487.735962,369.777405 486.253784,372.472626 485.001099,375.270630 
	C484.163483,377.141541 483.606110,379.144714 483.015167,381.116272 
	C482.740997,382.031006 482.807495,383.798553 482.512756,383.844208 
	C477.868439,384.563446 478.577393,389.065125 476.047729,391.898193 
	C474.222626,393.373077 473.109161,394.684387 471.645386,396.070953 
	C468.181458,400.267761 463.756866,400.037720 459.234711,400.036194 
	C327.218872,399.991516 195.203064,400.009918 63.187244,399.974487 
	C55.604656,399.972473 47.526577,401.822021 41.385002,395.137939 
	C41.297943,395.043274 41.065002,395.082672 40.900146,395.059479 
	C40.900146,395.059479 40.972523,395.027130 40.956604,394.753143 
	C40.277401,394.025055 39.614124,393.570923 38.950844,393.116821 
z"/>
<path fill="#FBC349" opacity="1.000000" stroke="none" 
	d="
M40.944492,395.432495 
	C41.065002,395.082672 41.297943,395.043274 41.385002,395.137939 
	C47.526577,401.822021 55.604656,399.972473 63.187244,399.974487 
	C195.203064,400.009918 327.218872,399.991516 459.234711,400.036194 
	C463.756866,400.037720 468.181458,400.267761 471.647522,396.073120 
	C472.000000,396.000000 472.000977,396.000977 472.005005,396.278381 
	C472.020172,396.740387 472.031372,396.925018 472.042603,397.109650 
	C467.826324,403.107880 463.625946,409.117371 459.387909,415.100128 
	C456.860565,418.667908 454.274109,422.193817 451.340027,425.517517 
	C450.032593,424.606537 449.092834,423.309845 448.167206,423.319824 
	C438.101349,423.428589 428.037994,423.925140 417.973419,423.938385 
	C410.726593,423.947906 403.477081,423.095703 396.232178,423.143768 
	C382.217651,423.236694 368.206573,423.847198 354.192108,423.937500 
	C346.780670,423.985291 339.363251,423.101166 331.951782,423.148041 
	C318.103790,423.235596 304.259094,423.850281 290.411102,423.937317 
	C282.999603,423.983917 275.582214,423.097473 268.170746,423.144836 
	C254.156281,423.234436 240.145172,423.846832 226.130692,423.937775 
	C218.719360,423.985870 211.302216,423.110657 203.890640,423.154114 
	C191.207840,423.228455 178.528137,423.883392 165.845657,423.935059 
	C157.268051,423.970001 148.686615,423.108093 140.109222,423.147949 
	C126.594421,423.210693 113.082306,423.888184 99.567665,423.939819 
	C88.377930,423.982574 77.186516,423.422028 65.994774,423.373444 
	C64.987206,423.369049 63.971836,425.160065 62.960091,426.117279 
	C60.147007,423.018280 57.179188,420.043243 54.567463,416.782928 
	C52.281235,413.928986 50.401138,410.750366 48.330765,407.722626 
	C46.216480,404.630615 44.051685,401.572174 41.993896,398.443207 
	C41.489094,397.675629 41.314983,396.690613 40.944492,395.432495 
z"/>
<path fill="#FBC44C" opacity="1.000000" stroke="none" 
	d="
M63.086903,426.427582 
	C63.971836,425.160065 64.987206,423.369049 65.994774,423.373444 
	C77.186516,423.422028 88.377930,423.982574 99.567665,423.939819 
	C113.082306,423.888184 126.594421,423.210693 140.109222,423.147949 
	C148.686615,423.108093 157.268051,423.970001 165.845657,423.935059 
	C178.528137,423.883392 191.207840,423.228455 203.890640,423.154114 
	C211.302216,423.110657 218.719360,423.985870 226.130692,423.937775 
	C240.145172,423.846832 254.156281,423.234436 268.170746,423.144836 
	C275.582214,423.097473 282.999603,423.983917 290.411102,423.937317 
	C304.259094,423.850281 318.103790,423.235596 331.951782,423.148041 
	C339.363251,423.101166 346.780670,423.985291 354.192108,423.937500 
	C368.206573,423.847198 382.217651,423.236694 396.232178,423.143768 
	C403.477081,423.095703 410.726593,423.947906 417.973419,423.938385 
	C428.037994,423.925140 438.101349,423.428589 448.167206,423.319824 
	C449.092834,423.309845 450.032593,424.606537 451.016357,425.673950 
	C451.066895,426.051392 451.020721,426.014252 450.839233,426.044739 
	C450.469604,426.397614 450.281494,426.719940 450.093414,427.042297 
	C446.641663,430.291107 443.189880,433.539886 439.081299,436.960693 
	C437.303436,438.123169 436.182434,439.113678 435.061462,440.104187 
	C435.061462,440.104187 435.038940,440.054779 435.064087,440.065125 
	C411.292847,444.076691 387.311371,441.769165 363.428894,441.872314 
	C284.854401,442.211731 206.277313,442.094147 127.701714,441.922607 
	C111.486008,441.887177 95.272461,440.861969 78.603348,440.378754 
	C78.148766,440.464569 78.175743,440.420837 78.278976,440.112244 
	C76.880989,438.550537 75.379776,437.297424 73.878571,436.044312 
	C70.323624,432.942169 66.768669,429.840027 63.086903,426.427582 
z"/>
<path fill="#FABF3F" opacity="1.000000" stroke="none" 
	d="
M366.596191,323.350891 
	C370.009216,323.900604 373.420929,324.918488 376.835510,324.928375 
	C415.737946,325.041077 454.640930,324.966980 493.543549,325.047729 
	C497.738739,325.056458 501.764709,325.064362 505.470947,322.031738 
	C503.914062,327.895233 501.838379,333.747833 500.150635,339.710266 
	C499.546997,341.842804 500.670837,345.663696 499.632965,346.239685 
	C496.962769,347.721619 496.328094,349.700775 495.564819,352.543335 
	C491.708618,353.583008 488.256683,354.894806 484.800751,354.905487 
	C439.975159,355.043884 395.148987,355.008301 350.323029,354.954193 
	C348.690125,354.952209 347.058014,354.310181 344.144135,353.696686 
	C346.708160,350.478485 348.644257,348.343903 350.205750,345.963562 
	C350.984070,344.777039 351.076538,343.140625 351.532135,341.691803 
	C351.585022,341.675903 351.646057,341.767822 351.899109,341.655640 
	C352.354187,341.242249 352.556244,340.941040 352.767883,340.705078 
	C352.777466,340.770325 352.645599,340.767670 352.898438,340.655334 
	C353.352661,340.241699 353.554077,339.940338 353.765503,339.703125 
	C353.775482,339.767303 353.645630,339.765289 353.899170,339.653473 
	C354.356506,339.241089 354.560272,338.940552 354.727783,338.672241 
	C354.691559,338.704468 354.640686,338.621887 355.020996,338.657684 
	C356.559509,337.022797 357.717712,335.352081 359.019958,333.385254 
	C361.300446,330.358673 363.436829,327.628265 365.835144,324.764832 
	C366.352051,324.338531 366.607025,324.045197 366.719360,323.702148 
	C366.576752,323.652374 366.596191,323.350891 366.596191,323.350891 
z"/>
<path fill="#FAC042" opacity="1.000000" stroke="none" 
	d="
M351.479248,341.707703 
	C351.076538,343.140625 350.984070,344.777039 350.205750,345.963562 
	C348.644257,348.343903 346.708160,350.478485 344.144135,353.696686 
	C347.058014,354.310181 348.690125,354.952209 350.323029,354.954193 
	C395.148987,355.008301 439.975159,355.043884 484.800751,354.905487 
	C488.256683,354.894806 491.708618,353.583008 495.494751,352.938812 
	C495.874329,353.167267 495.921570,353.332855 495.646393,353.792786 
	C494.832062,354.442505 494.340118,354.797943 493.848175,355.153351 
	C494.176239,355.436127 494.504333,355.718933 494.832397,356.001709 
	C493.240936,358.257904 491.477173,360.417786 490.137299,362.814606 
	C489.546509,363.871490 489.816589,365.409546 489.408173,366.883789 
	C488.933929,367.031677 488.747284,367.024902 488.241455,366.932434 
	C487.922302,366.846710 487.726898,366.831909 487.726898,366.831909 
	C487.726898,366.831909 487.998779,367.000671 487.998779,367.000671 
	C484.014130,370.723877 480.181732,374.633911 475.963593,378.070526 
	C474.453491,379.300873 472.012451,379.915833 469.994812,379.919250 
	C413.459503,380.015411 356.923889,379.959442 300.388672,380.074738 
	C296.250885,380.083191 294.759735,378.106079 294.377930,374.066650 
	C296.084595,373.282898 297.528625,373.058594 298.819275,373.155273 
	C298.304382,374.674652 297.942902,375.873047 297.581390,377.071442 
	C298.971863,377.234497 300.386810,377.633331 301.745758,377.492371 
	C303.030212,377.359222 304.316711,376.779877 305.496094,376.185913 
	C309.377594,374.231140 309.472565,372.747925 306.313110,369.801086 
	C323.549866,363.479034 338.483398,354.150238 351.479248,341.707703 
z"/>
<path fill="#FBC650" opacity="1.000000" stroke="none" 
	d="
M435.429199,440.058960 
	C436.182434,439.113678 437.303436,438.123169 438.774597,437.088989 
	C438.015472,438.034760 436.906189,439.024261 435.429199,440.058960 
z"/>
<path fill="#FBC349" opacity="1.000000" stroke="none" 
	d="
M471.997864,395.997833 
	C473.109161,394.684387 474.222626,393.373077 475.708069,392.055298 
	C475.085266,393.167053 474.090485,394.285309 472.754700,395.701355 
	C472.413696,395.999146 472.000977,396.000977 472.000977,396.000977 
	C472.000977,396.000977 472.000000,396.000000 471.997864,395.997833 
z"/>
<path fill="#FABF3F" opacity="1.000000" stroke="none" 
	d="
M494.944336,355.727356 
	C494.504333,355.718933 494.176239,355.436127 493.848175,355.153351 
	C494.340118,354.797943 494.832062,354.442505 495.582214,354.042938 
	C495.579041,354.483521 495.317657,354.968231 494.944336,355.727356 
z"/>
<path fill="#FBC349" opacity="1.000000" stroke="none" 
	d="
M450.333466,426.972534 
	C450.281494,426.719940 450.469604,426.397614 450.855286,426.068878 
	C451.037964,426.425232 450.878174,426.705322 450.333466,426.972534 
z"/>
<path fill="#FAC146" opacity="1.000000" stroke="none" 
	d="
M472.005005,396.278381 
	C472.000977,396.000977 472.413696,395.999146 472.619934,395.997864 
	C472.732819,396.305878 472.639496,396.615143 472.294373,397.017029 
	C472.031372,396.925018 472.020172,396.740387 472.005005,396.278381 
z"/>
<path fill="#FAB323" opacity="1.000000" stroke="none" 
	d="
M23.955765,149.877548 
	C24.630541,147.628571 24.960821,145.196045 26.043232,143.164230 
	C29.612404,136.464462 33.453655,129.909668 37.904556,123.221024 
	C41.819778,123.761894 45.020527,124.920326 48.222023,124.922401 
	C187.070969,125.012444 325.920013,124.990364 464.768982,125.047920 
	C468.805420,125.049591 472.614624,125.189972 474.837036,121.002426 
	C477.570862,125.988892 480.218445,131.025314 483.068359,135.944534 
	C485.019135,139.311798 487.325409,142.472153 489.309570,145.821671 
	C489.846832,146.728622 489.790771,147.987061 489.951111,149.840973 
	C488.423798,154.353119 485.270844,154.998047 481.765259,154.997772 
	C472.335388,154.997055 462.904785,155.076584 453.475830,154.983475 
	C435.211975,154.803131 416.949036,154.339676 398.685760,154.341278 
	C380.090607,154.342926 361.494110,154.974670 342.901306,154.854980 
	C338.089081,154.824005 333.298492,152.957886 328.475189,152.056702 
	C327.276154,151.832687 325.988312,152.083786 324.394806,152.075806 
	C321.615479,150.717438 319.257843,149.230698 316.737396,148.110123 
	C302.473083,141.768402 287.419678,138.459839 271.720703,136.332031 
	C269.712891,135.660553 267.967041,135.061371 266.220184,135.058380 
	C232.602341,135.000809 198.984314,134.992584 165.366547,135.065292 
	C163.473846,135.069382 161.582840,135.858047 159.665497,136.210358 
	C159.639954,136.139145 159.786209,136.100403 159.454636,136.203705 
	C158.737061,136.550629 158.351044,136.794235 157.731018,137.372482 
	C157.329086,143.136856 157.161194,148.566605 156.583374,154.075470 
	C154.374817,154.435532 152.576492,154.959518 150.777542,154.961639 
	C110.975647,155.008499 71.173660,154.979691 31.371765,155.026917 
	C27.567766,155.031418 24.909147,153.783783 23.955765,149.877548 
z"/>
<path fill="#F9AF1A" opacity="1.000000" stroke="none" 
	d="
M99.538925,53.977303 
	C102.914513,54.634853 105.941925,55.910702 108.970673,55.913898 
	C207.662415,56.018112 306.354309,56.018326 405.045990,55.896679 
	C407.585999,55.893551 410.124146,54.355824 412.857300,53.205421 
	C419.341705,58.385788 425.690613,63.829536 431.897491,69.430710 
	C434.989502,72.221031 437.821259,75.299728 440.897400,78.999924 
	C441.703644,84.562790 438.956268,85.059738 435.026306,85.057396 
	C316.384155,84.986580 197.741943,84.972771 79.099899,85.096481 
	C74.258652,85.101524 72.300758,83.631653 72.954155,78.878525 
	C72.972710,78.533493 73.128281,78.269081 73.996971,77.970688 
	C75.700615,76.530663 76.828163,75.205254 77.955711,73.879845 
	C85.034264,67.253990 92.112816,60.628128 99.538925,53.977303 
z"/>
<path fill="#FAB11F" opacity="1.000000" stroke="none" 
	d="
M474.905426,120.662262 
	C472.614624,125.189972 468.805420,125.049591 464.768982,125.047920 
	C325.920013,124.990364 187.070969,125.012444 48.222023,124.922401 
	C45.020527,124.920326 41.819778,123.761894 38.228691,123.069962 
	C38.613655,121.666931 39.388607,120.336769 40.790916,118.936211 
	C41.572639,118.228455 41.727001,117.591103 41.881363,116.953751 
	C44.809685,112.327026 47.447411,107.479538 50.747608,103.135323 
	C54.084774,98.742439 58.154732,94.913391 61.745747,90.702660 
	C63.167793,89.035194 64.164131,87.004692 65.715935,85.359070 
	C66.812286,90.198959 63.465515,92.991730 61.214432,96.232803 
	C59.796120,98.274879 58.082497,100.111847 56.150215,102.469193 
	C190.513870,102.469193 323.833527,102.469193 458.218201,102.469193 
	C455.744263,99.680946 453.684662,97.910156 452.331482,95.705734 
	C450.296417,92.390526 446.587463,89.612930 448.040466,84.880417 
	C454.129974,92.823448 460.222565,100.764122 466.307190,108.710922 
	C468.218262,111.206871 470.107880,113.719254 471.883301,116.782303 
	C472.212860,117.878967 472.666443,118.417458 473.120056,118.955948 
	C473.737976,119.411324 474.355896,119.866714 474.905426,120.662262 
z"/>
<path fill="#FAB01C" opacity="1.000000" stroke="none" 
	d="
M447.907593,84.569824 
	C446.587463,89.612930 450.296417,92.390526 452.331482,95.705734 
	C453.684662,97.910156 455.744263,99.680946 458.218201,102.469193 
	C323.833527,102.469193 190.513870,102.469193 56.150215,102.469193 
	C58.082497,100.111847 59.796120,98.274879 61.214432,96.232803 
	C63.465515,92.991730 66.812286,90.198959 66.018471,85.229614 
	C68.085579,82.971451 70.211800,81.062332 72.646088,79.015869 
	C72.300758,83.631653 74.258652,85.101524 79.099899,85.096481 
	C197.741943,84.972771 316.384155,84.986580 435.026306,85.057396 
	C438.956268,85.059738 441.703644,84.562790 441.034607,79.314827 
	C443.288330,80.671593 445.531525,82.465416 447.907593,84.569824 
z"/>
<path fill="#FAB62C" opacity="1.000000" stroke="none" 
	d="
M510.398987,211.853775 
	C506.463959,210.649841 507.025787,212.843155 507.518341,215.030914 
	C508.821686,220.819641 507.999084,221.961563 501.874756,221.973404 
	C474.100128,222.027084 446.324493,221.892776 418.551514,222.112793 
	C414.440094,222.145355 412.659088,219.904358 410.319000,216.828400 
	C409.618073,215.956985 409.307281,215.479568 409.009064,215.022003 
	C409.021606,215.041840 408.979126,215.061874 408.819885,214.701111 
	C407.012939,213.897324 405.371582,213.101700 403.716370,213.071747 
	C396.149872,212.934891 388.579468,213.012726 380.838257,212.717682 
	C378.737427,209.948380 376.808838,207.474808 374.810181,204.909698 
	C374.740143,204.818146 374.898102,204.650269 374.784119,204.347534 
	C374.405243,203.710114 374.140381,203.375412 373.678436,202.833557 
	C373.293274,202.095001 373.105194,201.563599 373.137482,200.783569 
	C374.142944,196.934708 372.255737,195.064224 368.961121,193.689804 
	C366.479370,190.071167 364.162903,186.760468 362.065857,183.195007 
	C370.918671,183.626831 379.548431,184.845993 388.186218,184.905792 
	C421.654633,185.137466 455.125763,184.940308 488.595306,185.065048 
	C493.556305,185.083527 498.183899,184.878006 501.829102,181.008057 
	C503.554352,185.755234 505.545288,190.426254 506.933838,195.269958 
	C508.476685,200.651810 509.470306,206.191116 510.398987,211.853775 
z"/>
<path fill="#FAB527" opacity="1.000000" stroke="none" 
	d="
M501.899475,180.612045 
	C498.183899,184.878006 493.556305,185.083527 488.595306,185.065048 
	C455.125763,184.940308 421.654633,185.137466 388.186218,184.905792 
	C379.548431,184.845993 370.918671,183.626831 361.761597,183.021515 
	C351.174500,170.298065 338.602753,160.447769 324.741302,152.116486 
	C325.988312,152.083786 327.276154,151.832687 328.475189,152.056702 
	C333.298492,152.957886 338.089081,154.824005 342.901306,154.854980 
	C361.494110,154.974670 380.090607,154.342926 398.685760,154.341278 
	C416.949036,154.339676 435.211975,154.803131 453.475830,154.983475 
	C462.904785,155.076584 472.335388,154.997055 481.765259,154.997772 
	C485.270844,154.998047 488.423798,154.353119 489.969604,150.237595 
	C495.776733,159.299454 498.956757,169.724930 501.899475,180.612045 
z"/>
<path fill="#FAB323" opacity="1.000000" stroke="none" 
	d="
M473.065918,118.653351 
	C472.666443,118.417458 472.212860,117.878967 471.936523,117.144958 
	C472.413116,117.416534 472.712463,117.883636 473.065918,118.653351 
z"/>
<path fill="#FAB427" opacity="1.000000" stroke="none" 
	d="
M23.657330,150.012039 
	C24.909147,153.783783 27.567766,155.031418 31.371765,155.026917 
	C71.173660,154.979691 110.975647,155.008499 150.777542,154.961639 
	C152.576492,154.959518 154.374817,154.435532 156.585281,154.532318 
	C157.325058,158.600769 157.652985,162.291519 157.990387,166.450897 
	C157.991394,172.281067 157.982956,177.642609 157.974503,183.004135 
	C153.508606,183.336090 149.043213,183.948044 144.576721,183.956268 
	C104.078491,184.030869 63.579758,184.067749 23.082298,183.877258 
	C19.673380,183.861221 16.272614,182.112518 12.519367,181.087982 
	C12.521149,177.134186 12.377013,173.125214 13.391558,169.434784 
	C14.097885,166.865509 16.871531,164.919556 17.869160,162.362534 
	C19.370918,158.513351 19.767620,154.190216 20.962997,151.842163 
	C21.637960,150.516357 22.816971,150.493622 23.657330,150.012039 
z"/>
<path fill="#FAB01C" opacity="1.000000" stroke="none" 
	d="
M77.574791,73.930267 
	C76.828163,75.205254 75.700615,76.530663 74.225639,77.905838 
	C74.983421,76.630623 76.088646,75.305656 77.574791,73.930267 
z"/>
<path fill="#FAB323" opacity="1.000000" stroke="none" 
	d="
M41.599503,117.074524 
	C41.727001,117.591103 41.572639,118.228455 41.148994,118.910980 
	C41.025692,118.369202 41.171669,117.782249 41.599503,117.074524 
z"/>
<path fill="#FAB933" opacity="1.000000" stroke="none" 
	d="
M3.712206,209.965607 
	C3.849038,210.158646 3.695546,210.417953 3.335413,210.808716 
	C3.269675,210.662979 3.367378,210.360214 3.712206,209.965607 
z"/>
<path fill="#FAC041" opacity="1.000000" stroke="none" 
	d="
M157.903961,369.008026 
	C153.964844,372.190613 149.705002,372.486053 144.588699,372.295471 
	C128.983932,371.714264 113.339005,372.271545 97.709724,372.268799 
	C84.980209,372.266541 72.250824,372.077057 59.521179,372.007263 
	C52.202236,371.967133 44.881248,371.906647 37.564381,372.036255 
	C33.407871,372.109924 29.527164,371.985382 27.253881,367.662109 
	C27.085352,367.341614 25.849171,367.582520 25.031441,367.842957 
	C21.396564,360.344055 17.759987,352.599213 14.355801,344.753510 
	C13.741361,343.337433 14.082112,341.506897 14.287821,339.537537 
	C18.036392,340.138245 21.475241,341.862305 24.922215,341.878693 
	C64.804314,342.068481 104.687706,342.031219 144.570572,341.956238 
	C149.023880,341.947876 153.476089,341.336121 157.953705,341.471954 
	C157.953735,350.962494 157.928848,359.985260 157.903961,369.008026 
z"/>
<path fill="#FABE3E" opacity="1.000000" stroke="none" 
	d="
M157.928802,341.004181 
	C153.476089,341.336121 149.023880,341.947876 144.570572,341.956238 
	C104.687706,342.031219 64.804314,342.068481 24.922215,341.878693 
	C21.475241,341.862305 18.036392,340.138245 14.236772,339.123566 
	C13.250384,336.991913 12.620994,334.944092 11.983327,332.097534 
	C10.371758,326.535675 8.768464,321.772491 7.165172,317.009338 
	C7.106599,316.575653 7.048026,316.141998 6.936751,315.382996 
	C10.278705,313.456360 12.441411,313.710663 13.250307,318.145996 
	C13.467808,319.338593 16.249756,320.834717 17.884933,320.872437 
	C28.519812,321.117798 39.163082,320.999847 49.803608,320.999908 
	C82.223961,321.000153 114.644318,321.002106 147.064667,320.998291 
	C153.926865,320.997467 153.935944,320.987549 153.996017,314.220856 
	C154.021210,311.382141 153.692459,308.403748 157.592712,307.552979 
	C157.960434,318.962433 157.944626,329.983307 157.928802,341.004181 
z"/>
<path fill="#FABC3A" opacity="1.000000" stroke="none" 
	d="
M7.094935,317.406067 
	C8.768464,321.772491 10.371758,326.535675 11.966088,331.707947 
	C10.395282,329.183716 8.590775,326.346832 7.370546,323.277710 
	C6.728278,321.662262 7.107000,319.640900 7.094935,317.406067 
z"/>
<path fill="#FBC650" opacity="1.000000" stroke="none" 
	d="
M73.931549,436.412048 
	C75.379776,437.297424 76.880989,438.550537 78.265091,440.133026 
	C76.760162,439.234863 75.372345,438.007355 73.931549,436.412048 
z"/>
<path fill="#FBC349" opacity="1.000000" stroke="none" 
	d="
M38.975967,393.457642 
	C39.614124,393.570923 40.277401,394.025055 40.940407,394.789307 
	C40.293781,394.665802 39.647434,394.232147 38.975967,393.457642 
z"/>
<path fill="#FFFEFB" opacity="1.000000" stroke="none" 
	d="
M324.394806,152.075790 
	C338.602753,160.447769 351.174500,170.298065 361.542206,183.276276 
	C364.162903,186.760468 366.479370,190.071167 368.971405,194.029877 
	C370.403687,196.796005 371.660400,198.914093 372.917114,201.032196 
	C373.105194,201.563599 373.293274,202.095001 373.734619,203.163788 
	C374.291290,204.017532 374.594696,204.333893 374.898102,204.650269 
	C374.898102,204.650269 374.740143,204.818146 374.858582,205.283356 
	C375.863312,207.865250 376.528442,210.119171 377.723022,212.044617 
	C378.386139,213.113373 379.933167,213.633713 381.534302,214.501221 
	C390.984253,214.754745 399.981689,214.908310 408.979126,215.061890 
	C408.979126,215.061874 409.021606,215.041840 409.000366,215.490356 
	C409.012665,224.614624 409.046173,233.290390 409.079681,241.966156 
	C405.064392,242.291000 401.054199,242.733887 397.032379,242.906311 
	C393.279846,243.067215 389.514984,242.940735 385.238403,242.940735 
	C385.468323,247.032455 385.668243,250.590637 385.949860,254.574066 
	C385.718994,260.052185 385.406433,265.105072 385.118652,270.836243 
	C385.426453,271.638641 385.709503,271.762726 385.992523,271.886841 
	C393.500092,272.052917 401.007629,272.218994 408.755585,273.174683 
	C409.028351,282.626282 409.060730,291.288330 409.093079,299.950348 
	C409.093079,299.950348 408.899872,300.287994 408.469299,300.545410 
	C399.457092,300.816376 390.874725,300.777344 382.294434,300.893402 
	C380.805542,300.913513 379.325500,301.589294 377.841370,301.962219 
	C374.176697,308.892517 370.511963,315.822784 366.721741,323.052002 
	C366.596191,323.350891 366.576752,323.652374 366.405396,323.750061 
	C366.013763,324.197784 365.793488,324.547821 365.573242,324.897827 
	C363.436829,327.628265 361.300446,330.358673 358.733582,333.556824 
	C357.082306,335.557007 355.861481,337.089447 354.640686,338.621887 
	C354.640686,338.621887 354.691559,338.704468 354.461182,338.768494 
	C354.035736,339.143433 353.840668,339.454376 353.645630,339.765289 
	C353.645630,339.765289 353.775482,339.767303 353.500366,339.801392 
	C353.032043,340.146179 352.838806,340.456940 352.645599,340.767670 
	C352.645599,340.767670 352.777466,340.770325 352.502197,340.802643 
	C352.033295,341.145905 351.839691,341.456879 351.646057,341.767822 
	C351.646057,341.767822 351.585022,341.675903 351.532135,341.691803 
	C338.483398,354.150238 323.549866,363.479034 305.950867,369.786926 
	C303.171539,370.915894 301.072083,371.875092 298.972656,372.834290 
	C297.528625,373.058594 296.084595,373.282898 294.316589,373.684479 
	C289.693970,374.884338 285.442169,376.415009 281.086273,376.816925 
	C273.511414,377.515778 265.872589,377.760925 258.260071,377.769623 
	C225.669769,377.806885 193.079269,377.688354 160.200928,376.902435 
	C159.940613,352.718353 159.976181,329.258423 159.974487,305.798523 
	C159.974396,304.491028 159.666260,303.183502 159.200684,301.526428 
	C147.952362,301.018921 137.004898,300.860962 126.057426,300.703003 
	C126.021690,292.106598 125.985962,283.510162 125.857094,274.452515 
	C126.019569,273.435944 126.275185,272.880615 127.241432,272.188019 
	C137.634827,271.981445 147.317596,271.912109 157.446915,271.897522 
	C157.938889,262.346100 157.984299,252.739914 158.029709,243.133743 
	C147.500244,243.133743 136.970779,243.133743 125.901222,243.133743 
	C125.901222,239.295410 125.901222,236.183487 125.895920,232.329132 
	C125.837059,230.292023 125.783501,228.997360 125.729935,227.702713 
	C125.793854,226.090393 125.857765,224.478088 125.847160,222.467392 
	C125.927643,219.807251 126.082649,217.545502 126.283882,214.609177 
	C136.675903,214.609177 146.843338,214.609177 157.895111,214.333542 
	C158.983994,212.274979 159.361328,210.492523 159.366318,208.709030 
	C159.414139,191.626831 159.362732,174.544357 159.419342,157.462219 
	C159.442932,150.341278 159.658127,143.220993 159.786194,136.100403 
	C159.786209,136.100403 159.639954,136.139145 160.171204,136.196564 
	C197.795685,136.396637 234.888931,136.539276 271.982178,136.681915 
	C287.419678,138.459839 302.473083,141.768402 316.737396,148.110123 
	C319.257843,149.230698 321.615479,150.717438 324.394806,152.075790 
M187.339951,163.892075 
	C187.323029,179.490723 187.291290,195.089417 187.321762,210.687973 
	C187.323837,211.751663 187.792633,212.814423 188.933304,214.179504 
	C240.360031,214.206238 291.786743,214.233902 343.213470,214.252792 
	C344.207306,214.253159 345.225800,214.252518 346.178131,214.024246 
	C346.421600,213.965866 346.455841,213.034485 346.509216,211.860428 
	C346.086151,211.120453 345.663055,210.380463 345.039520,208.990265 
	C326.602539,177.761154 298.357666,163.670868 262.064331,161.860718 
	C238.522171,161.846329 214.979980,161.813583 191.437973,161.866928 
	C190.138840,161.869873 188.841324,162.587570 187.339951,163.892075 
M188.987732,272.026520 
	C243.332840,272.042511 297.677948,272.065948 352.023041,272.030182 
	C353.343658,272.029327 354.663788,271.369080 356.300995,270.238312 
	C357.492249,261.201599 357.712097,252.195068 356.024231,243.363983 
	C299.512146,243.363983 243.561539,243.363983 187.198471,243.363983 
	C187.198471,248.918503 187.085464,254.052887 187.233688,259.179718 
	C187.355591,263.396637 187.787491,267.604645 188.987732,272.026520 
M187.275360,302.728577 
	C187.363403,318.849640 187.451462,334.970673 188.082825,351.845337 
	C212.049789,351.890717 236.016769,351.936096 260.883484,352.100922 
	C275.477081,351.813293 289.599457,349.156189 302.939362,343.143616 
	C321.795868,334.644592 336.855347,321.957581 346.520935,302.352112 
	C345.231964,301.785858 343.943817,300.726593 342.653900,300.724426 
	C292.587036,300.640564 242.519989,300.640961 192.453079,300.707092 
	C190.799667,300.709259 189.147308,301.507629 187.275360,302.728577 
z"/>
<path fill="#FAB200" opacity="1.000000" stroke="none" 
	d="
M158.027924,243.593597 
	C157.984299,252.739914 157.938889,262.346100 157.449341,271.734283 
	C157.005203,271.516296 157.010025,271.189789 157.010040,271.189789 
	C157.346146,266.623138 157.809540,262.061279 157.982193,257.488464 
	C158.151077,253.015961 158.023544,248.532257 158.027924,243.593597 
z"/>
<path fill="#FABC00" opacity="1.000000" stroke="none" 
	d="
M156.542603,271.135681 
	C157.010025,271.189789 157.005203,271.516296 157.002777,271.679565 
	C147.317596,271.912109 137.634827,271.981445 127.487045,272.001312 
	C131.579636,271.639496 136.133148,271.182526 140.695923,271.053284 
	C145.817963,270.908264 150.948395,271.059326 156.542603,271.135681 
z"/>
<path fill="#FAB62C" opacity="1.000000" stroke="none" 
	d="
M125.402924,227.945007 
	C125.783501,228.997360 125.837059,230.292023 125.800827,231.904297 
	C125.499313,230.877045 125.287613,229.532181 125.402924,227.945007 
z"/>
<path fill="#FAB600" opacity="1.000000" stroke="none" 
	d="
M126.190201,300.951904 
	C137.004898,300.860962 147.952362,301.018921 159.025024,301.975159 
	C159.062790,327.514771 158.975342,352.256042 158.887894,376.997345 
	C158.579559,374.616058 158.271210,372.234772 157.933411,369.430756 
	C157.928848,359.985260 157.953735,350.962494 157.953720,341.471954 
	C157.944626,329.983307 157.960434,318.962433 157.953094,307.473938 
	C157.952728,305.935486 157.975510,304.864716 157.673615,303.120880 
	C147.247864,302.315430 137.146774,302.183014 127.045677,302.050598 
	C126.804779,301.767334 126.563881,301.484070 126.190201,300.951904 
z"/>
<path fill="#FABD44" opacity="1.000000" stroke="none" 
	d="
M127.381439,302.282318 
	C137.146774,302.183014 147.247864,302.315430 157.661255,302.719391 
	C147.888123,302.831970 137.802658,302.673004 127.381439,302.282318 
z"/>
<path fill="#FAAF01" opacity="1.000000" stroke="none" 
	d="
M159.454620,136.203705 
	C159.658127,143.220993 159.442932,150.341278 159.419342,157.462219 
	C159.362732,174.544357 159.414139,191.626831 159.366318,208.709030 
	C159.361328,210.492523 158.983994,212.274979 158.313919,214.199219 
	C157.897064,204.207138 157.945724,194.073776 157.984436,183.472260 
	C157.982956,177.642609 157.991394,172.281067 157.998810,165.984467 
	C157.986862,155.712204 157.975952,146.375031 157.965042,137.037842 
	C158.351044,136.794235 158.737061,136.550629 159.454620,136.203705 
z"/>
<path fill="#FAB200" opacity="1.000000" stroke="none" 
	d="
M378.320312,301.970703 
	C379.325500,301.589294 380.805542,300.913513 382.294434,300.893402 
	C390.874725,300.777344 399.457092,300.816376 408.500977,300.737366 
	C407.288879,301.103851 405.620026,301.882751 403.939331,301.909180 
	C395.561005,302.041168 387.179596,301.975342 378.320312,301.970703 
z"/>
<path fill="#FAB907" opacity="1.000000" stroke="none" 
	d="
M409.325073,299.622803 
	C409.060730,291.288330 409.028351,282.626282 409.038086,273.499451 
	C409.393677,278.047821 409.707184,283.060974 410.042603,288.540771 
	C409.895355,292.436646 409.726196,295.865936 409.325073,299.622803 
z"/>
<path fill="#FAB200" opacity="1.000000" stroke="none" 
	d="
M409.298584,241.731689 
	C409.046173,233.290390 409.012665,224.614624 408.987854,215.470505 
	C409.307281,215.479568 409.618073,215.956985 409.990692,216.719879 
	C410.041473,224.026047 410.030396,231.046768 410.040771,238.536240 
	C409.880676,239.835739 409.699097,240.666473 409.298584,241.731689 
z"/>
<path fill="#FABD44" opacity="1.000000" stroke="none" 
	d="
M385.882629,271.719666 
	C385.709503,271.762726 385.426453,271.638641 385.164001,271.264252 
	C385.410126,271.161255 385.606201,271.340759 385.882629,271.719666 
z"/>
<path fill="#FCD294" opacity="1.000000" stroke="none" 
	d="
M159.113098,377.035950 
	C158.975342,352.256042 159.062790,327.514771 159.325867,302.324738 
	C159.666260,303.183502 159.974396,304.491028 159.974487,305.798523 
	C159.976181,329.258423 159.940613,352.718353 159.852570,376.653290 
	C159.792114,377.128326 159.338303,377.074554 159.113098,377.035950 
z"/>
<path fill="#FAC042" opacity="1.000000" stroke="none" 
	d="
M355.020996,338.657684 
	C355.861481,337.089447 357.082306,335.557007 358.589478,333.852966 
	C357.717712,335.352081 356.559509,337.022797 355.020996,338.657684 
z"/>
<path fill="#FAC042" opacity="1.000000" stroke="none" 
	d="
M353.899170,339.653473 
	C353.840668,339.454376 354.035736,339.143433 354.497406,338.736267 
	C354.560272,338.940552 354.356506,339.241089 353.899170,339.653473 
z"/>
<path fill="#FAC042" opacity="1.000000" stroke="none" 
	d="
M351.899109,341.655640 
	C351.839691,341.456879 352.033295,341.145905 352.492615,340.737427 
	C352.556244,340.941040 352.354187,341.242249 351.899109,341.655640 
z"/>
<path fill="#FAC042" opacity="1.000000" stroke="none" 
	d="
M352.898438,340.655334 
	C352.838806,340.456940 353.032043,340.146179 353.490356,339.737213 
	C353.554077,339.940338 353.352661,340.241699 352.898438,340.655334 
z"/>
<path fill="#FABD3B" opacity="1.000000" stroke="none" 
	d="
M365.835144,324.764832 
	C365.793488,324.547821 366.013763,324.197784 366.548004,323.799835 
	C366.607025,324.045197 366.352051,324.338531 365.835144,324.764832 
z"/>
<path fill="#FAC146" opacity="1.000000" stroke="none" 
	d="
M298.819275,373.155273 
	C301.072083,371.875092 303.171539,370.915894 305.633240,369.970825 
	C309.472565,372.747925 309.377594,374.231140 305.496094,376.185913 
	C304.316711,376.779877 303.030212,377.359222 301.745758,377.492371 
	C300.386810,377.633331 298.971863,377.234497 297.581390,377.071442 
	C297.942902,375.873047 298.304382,374.674652 298.819275,373.155273 
z"/>
<path fill="#FAC146" opacity="1.000000" stroke="none" 
	d="
M487.999390,367.000336 
	C487.998779,367.000671 487.726898,366.831909 487.726898,366.831909 
	C487.726898,366.831909 487.922302,366.846710 487.961487,366.922729 
	C488.000641,366.998779 488.000000,367.000000 487.999390,367.000336 
z"/>
<path fill="#FAAF01" opacity="1.000000" stroke="none" 
	d="
M271.720703,136.332031 
	C234.888931,136.539276 197.795685,136.396637 160.196747,136.267761 
	C161.582840,135.858047 163.473846,135.069382 165.366547,135.065292 
	C198.984314,134.992584 232.602341,135.000809 266.220184,135.058380 
	C267.967041,135.061371 269.712891,135.660553 271.720703,136.332031 
z"/>
<path fill="#FAB62C" opacity="1.000000" stroke="none" 
	d="
M157.731018,137.372482 
	C157.975952,146.375031 157.986862,155.712204 157.989349,165.515839 
	C157.652985,162.291519 157.325058,158.600769 156.995209,154.453186 
	C157.161194,148.566605 157.329086,143.136856 157.731018,137.372482 
z"/>
<path fill="#FAB413" opacity="1.000000" stroke="none" 
	d="
M408.819885,214.701111 
	C399.981689,214.908310 390.984253,214.754745 381.531097,214.269440 
	C381.035950,213.630859 381.014313,213.322769 381.010468,213.013412 
	C388.579468,213.012726 396.149872,212.934891 403.716370,213.071747 
	C405.371582,213.101700 407.012939,213.897324 408.819885,214.701111 
z"/>
<path fill="#FAB830" opacity="1.000000" stroke="none" 
	d="
M380.838257,212.717682 
	C381.014313,213.322769 381.035950,213.630859 381.078583,214.169479 
	C379.933167,213.633713 378.386139,213.113373 377.723022,212.044617 
	C376.528442,210.119171 375.863312,207.865250 374.928619,205.374893 
	C376.808838,207.474808 378.737427,209.948380 380.838257,212.717682 
z"/>
<path fill="#FAB830" opacity="1.000000" stroke="none" 
	d="
M373.137482,200.783569 
	C371.660400,198.914093 370.403687,196.796005 369.136688,194.337830 
	C372.255737,195.064224 374.142944,196.934708 373.137482,200.783569 
z"/>
<path fill="#FAB830" opacity="1.000000" stroke="none" 
	d="
M374.784119,204.347534 
	C374.594696,204.333893 374.291290,204.017532 373.931702,203.370941 
	C374.140381,203.375412 374.405243,203.710114 374.784119,204.347534 
z"/>
<path fill="#FAB62A" opacity="1.000000" stroke="none" 
	d="
M262.986084,162.034164 
	C298.357666,163.670868 326.602539,177.761154 344.990051,209.636475 
	C344.642883,211.165283 344.345245,212.047867 343.576569,212.956573 
	C292.046295,212.965256 240.987045,212.947845 189.804382,212.748322 
	C189.486343,212.339844 189.259827,212.151917 188.998169,211.533630 
	C188.994720,195.041611 188.994492,179.018402 189.463501,162.993378 
	C212.364227,162.990723 234.795776,163.013107 257.227081,162.947601 
	C259.147614,162.942001 261.066467,162.352448 262.986084,162.034164 
z"/>
<path fill="#FABE3E" opacity="1.000000" stroke="none" 
	d="
M187.539520,351.091736 
	C187.451462,334.970673 187.363403,318.849640 187.889374,302.348083 
	C238.581772,301.975616 288.660187,301.969208 338.738464,302.035370 
	C341.175293,302.038574 343.611267,302.678497 346.047638,303.021942 
	C336.855347,321.957581 321.795868,334.644592 302.939362,343.143616 
	C289.599457,349.156189 275.477081,351.813293 260.103699,351.792938 
	C258.181915,351.327087 257.039948,351.031677 255.897964,351.031647 
	C233.111816,351.031250 210.325653,351.064911 187.539520,351.091736 
z"/>
<path fill="#FABA35" opacity="1.000000" stroke="none" 
	d="
M188.082016,271.816589 
	C187.787491,267.604645 187.355591,263.396637 187.233688,259.179718 
	C187.085464,254.052887 187.198471,248.918503 187.198471,243.363983 
	C243.561539,243.363983 299.512146,243.363983 356.024231,243.363983 
	C357.712097,252.195068 357.492249,261.201599 355.674957,270.624115 
	C301.499054,271.010559 247.949203,271.002075 194.399384,271.045807 
	C192.293381,271.047546 190.187790,271.548309 188.082016,271.816589 
z"/>
<path fill="#FABC00" opacity="1.000000" stroke="none" 
	d="
M188.534882,271.921539 
	C190.187790,271.548309 192.293381,271.047546 194.399384,271.045807 
	C247.949203,271.002075 301.499054,271.010559 355.516541,271.013153 
	C354.663788,271.369080 353.343658,272.029327 352.023041,272.030182 
	C297.677948,272.065948 243.332840,272.042511 188.534882,271.921539 
z"/>
<path fill="#FAB600" opacity="1.000000" stroke="none" 
	d="
M346.284302,302.687012 
	C343.611267,302.678497 341.175293,302.038574 338.738464,302.035370 
	C288.660187,301.969208 238.581772,301.975616 187.998932,301.951233 
	C189.147308,301.507629 190.799667,300.709259 192.453079,300.707092 
	C242.519989,300.640961 292.587036,300.640564 342.653900,300.724426 
	C343.943817,300.726593 345.231964,301.785858 346.284302,302.687012 
z"/>
<path fill="#FAB200" opacity="1.000000" stroke="none" 
	d="
M189.927780,212.930435 
	C240.987045,212.947845 292.046295,212.965256 344.004456,212.919342 
	C345.464325,212.738739 346.025269,212.621475 346.586212,212.504196 
	C346.455841,213.034485 346.421600,213.965866 346.178131,214.024246 
	C345.225800,214.252518 344.207306,214.253159 343.213470,214.252792 
	C291.786743,214.233902 240.360031,214.206238 188.631866,213.853760 
	C188.538620,213.306808 188.775192,213.121902 189.262161,212.964508 
	C189.484161,212.955704 189.927780,212.930435 189.927780,212.930435 
z"/>
<path fill="#FAB413" opacity="1.000000" stroke="none" 
	d="
M189.040161,212.973328 
	C188.775192,213.121902 188.538620,213.306808 188.187408,213.702820 
	C187.792633,212.814423 187.323837,211.751663 187.321762,210.687973 
	C187.291290,195.089417 187.323029,179.490723 187.683350,163.422180 
	C188.349228,162.967163 188.671722,162.981461 188.994263,162.995178 
	C188.994492,179.018402 188.994720,195.041611 189.000107,211.776657 
	C189.005280,212.488480 189.040161,212.973328 189.040161,212.973328 
z"/>
<path fill="#FAB200" opacity="1.000000" stroke="none" 
	d="
M189.463501,162.993378 
	C188.671722,162.981461 188.349228,162.967163 187.784897,162.962433 
	C188.841324,162.587570 190.138840,161.869873 191.437973,161.866928 
	C214.979980,161.813583 238.522171,161.846329 262.525208,161.947449 
	C261.066467,162.352448 259.147614,162.942001 257.227081,162.947601 
	C234.795776,163.013107 212.364227,162.990723 189.463501,162.993378 
z"/>
<path fill="#FABE15" opacity="1.000000" stroke="none" 
	d="
M187.811157,351.468506 
	C210.325653,351.064911 233.111816,351.031250 255.897964,351.031647 
	C257.039948,351.031677 258.181915,351.327087 259.653809,351.733215 
	C236.016769,351.936096 212.049789,351.890717 187.811157,351.468506 
z"/>
<path fill="#FABD44" opacity="1.000000" stroke="none" 
	d="
M346.547729,212.182312 
	C346.025269,212.621475 345.464325,212.738739 344.475464,212.893250 
	C344.345245,212.047867 344.642883,211.165283 345.090271,209.961578 
	C345.663055,210.380463 346.086151,211.120453 346.547729,212.182312 
z"/>
<path fill="#FABD44" opacity="1.000000" stroke="none" 
	d="
M189.262161,212.964508 
	C189.040161,212.973328 189.005280,212.488480 189.003342,212.245453 
	C189.259827,212.151917 189.486343,212.339844 189.804382,212.748322 
	C189.927780,212.930435 189.484161,212.955704 189.262161,212.964508 
z"/>
</svg>