<svg version="1.1" id="Layer_1" xmlns="http://www.w3.org/2000/svg" xmlns:xlink="http://www.w3.org/1999/xlink" x="0px" y="0px"
	 width="100%" viewBox="0 0 56 56" enable-background="new 0 0 56 56" xml:space="preserve">
<path fill="#9B9B9B" opacity="1.000000" stroke="none" 
	d="
M1.000000,25.000000 
	C1.000000,22.299986 1.000000,19.599974 1.381109,16.471144 
	C3.761465,13.386484 5.760711,10.730640 7.792909,8.093771 
	C7.825861,8.112744 7.827229,8.188780 8.192293,8.099957 
	C11.371572,5.674090 14.185785,3.337045 17.000000,1.000000 
	C20.030594,1.000000 23.061186,1.000000 26.543852,1.346851 
	C29.996962,3.793045 32.997997,5.892387 35.914181,8.347629 
	C33.634579,10.939954 26.131107,11.110233 23.243534,8.805468 
	C24.043455,8.331575 24.598175,8.046922 25.299347,7.687115 
	C17.913202,5.887795 10.232669,11.912010 7.192349,21.923050 
	C6.659122,24.224031 6.249737,26.176668 5.541185,27.994888 
	C3.828012,26.906982 2.414006,25.953491 1.000000,25.000000 
z"/>
<path fill="#272727" opacity="1.000000" stroke="none" 
	d="
M35.999035,7.991729 
	C32.997997,5.892387 29.996962,3.793045 26.997963,1.346851 
	C31.689257,1.000000 36.378513,1.000000 41.617340,1.341605 
	C46.375622,7.790896 49.183422,15.172112 57.000000,18.000000 
	C57.000000,23.354929 57.000000,28.709860 56.673950,34.475475 
	C54.943741,33.914349 53.539581,32.942535 52.083977,31.548346 
	C51.389259,28.048223 50.745991,24.970474 50.046471,21.540363 
	C49.151573,19.645607 48.427429,18.026279 47.452583,16.575399 
	C44.645222,12.397168 41.312847,8.854469 35.999035,7.991729 
z"/>
<path fill="#4B4B4B" opacity="1.000000" stroke="none" 
	d="
M52.135426,31.970720 
	C53.539581,32.942535 54.943741,33.914349 56.673950,34.943081 
	C57.000000,37.370556 57.000000,39.741116 56.648041,42.514114 
	C50.944347,47.396919 48.208012,55.122543 39.998260,56.089508 
	C39.963573,56.093594 39.997902,56.683620 40.000000,57.000000 
	C39.250000,57.000000 38.500000,57.000000 37.295937,56.679497 
	C35.545971,54.978775 34.250065,53.598564 33.266342,52.077873 
	C34.381649,51.574528 35.184776,51.211658 36.340847,50.839539 
	C42.826241,48.317715 47.833305,44.641476 50.177315,37.705582 
	C50.970356,35.601730 51.552891,33.786224 52.135426,31.970720 
z"/>
<path fill="#020202" opacity="1.000000" stroke="none" 
	d="
M57.000000,17.529547 
	C49.183422,15.172112 46.375622,7.790896 42.083454,1.341605 
	C46.930016,1.000000 51.860031,1.000000 57.000000,1.000000 
	C57.000000,6.351796 57.000000,11.705444 57.000000,17.529547 
z"/>
<path fill="#0B0B0B" opacity="1.000000" stroke="none" 
	d="
M1.000000,40.000000 
	C1.000000,39.250000 1.000000,38.500000 1.363548,37.352592 
	C4.448183,38.623726 7.169270,40.292267 9.971642,42.302132 
	C13.704043,45.417316 17.355158,48.191174 21.064220,51.304348 
	C22.081446,53.429111 23.040724,55.214554 24.000000,57.000000 
	C20.637899,57.000000 17.275799,57.000000 13.445354,56.605118 
	C11.084956,49.255024 4.703344,45.616936 1.000000,40.000000 
z"/>
<path fill="#090909" opacity="1.000000" stroke="none" 
	d="
M7.759957,8.074797 
	C5.760711,10.730640 3.761465,13.386484 1.381109,16.021164 
	C1.000000,11.072524 1.000000,6.145047 1.000000,1.000000 
	C6.017815,1.000000 11.037709,1.000000 16.528801,1.000000 
	C14.185785,3.337045 11.371572,5.674090 8.145767,8.040874 
	C7.734177,8.070614 7.980318,7.958045 7.980318,7.958045 
	C7.980318,7.958045 7.759957,8.074797 7.759957,8.074797 
z"/>
<path fill="#000000" opacity="1.000000" stroke="none" 
	d="
M1.000000,40.470451 
	C4.703344,45.616936 11.084956,49.255024 12.988506,56.605118 
	C9.061882,57.000000 5.123763,57.000000 1.000000,57.000000 
	C1.000000,51.647926 1.000000,46.294418 1.000000,40.470451 
z"/>
<path fill="#000000" opacity="1.000000" stroke="none" 
	d="
M40.470451,57.000000 
	C39.997902,56.683620 39.963573,56.093594 39.998260,56.089508 
	C48.208012,55.122543 50.944347,47.396919 56.648041,42.958275 
	C57.000000,47.599205 57.000000,52.198410 57.000000,57.000000 
	C51.648113,57.000000 46.294510,57.000000 40.470451,57.000000 
z"/>
<path fill="#2D2D2D" opacity="1.000000" stroke="none" 
	d="
M9.890356,41.960808 
	C7.169270,40.292267 4.448183,38.623726 1.363548,36.977592 
	C1.000000,33.307091 1.000000,29.614182 1.000000,25.460636 
	C2.414006,25.953491 3.828012,26.906982 5.545801,28.417614 
	C6.542251,31.940573 7.234920,34.906391 8.247015,38.037056 
	C9.116380,39.508774 9.666316,40.815647 10.096966,42.158295 
	C9.977679,42.194073 9.890357,41.960808 9.890356,41.960808 
z"/>
<path fill="#242424" opacity="1.000000" stroke="none" 
	d="
M24.463184,57.000000 
	C23.040724,55.214554 22.081446,53.429111 21.486607,51.309639 
	C25.552084,51.389854 29.253122,51.804104 32.954163,52.218349 
	C34.250065,53.598564 35.545971,54.978775 36.920937,56.679497 
	C32.975456,57.000000 28.950911,57.000000 24.463184,57.000000 
z"/>
<path fill="#A6A6A6" opacity="1.000000" stroke="none" 
	d="
M35.914181,8.347629 
	C41.312847,8.854469 44.645222,12.397168 47.452583,16.575399 
	C48.427429,18.026279 49.151573,19.645607 49.734516,21.742310 
	C49.570652,23.074152 49.867207,23.894209 49.716175,24.621294 
	C49.252048,26.855692 49.129154,30.515160 47.931282,30.935543 
	C45.981155,31.619923 43.182838,30.439146 40.932945,29.558746 
	C38.784943,28.718220 36.880180,27.256096 34.868492,26.067217 
	C35.432816,25.447489 35.997139,24.827763 36.561462,24.208035 
	C37.194645,24.060534 37.944180,24.078564 38.437363,23.731897 
	C39.545708,22.952831 40.526852,21.992815 41.559772,21.106457 
	C40.248062,20.400839 38.998703,19.301311 37.610092,19.081514 
	C35.503754,18.748112 33.297836,19.103722 31.139362,19.025188 
	C28.211655,18.918669 26.816078,20.147177 26.958900,23.160950 
	C27.070770,25.521521 26.981331,27.891628 26.981331,30.901119 
	C15.781380,21.813860 15.781380,21.813860 9.166532,21.632050 
	C12.042342,15.200288 16.123108,10.535669 22.998333,8.994706 
	C26.131107,11.110233 33.634579,10.939954 35.914181,8.347629 
z"/>
<path fill="#FAFAFA" opacity="1.000000" stroke="none" 
	d="
M9.088524,21.965092 
	C15.781380,21.813860 15.781380,21.813860 26.981331,30.901119 
	C26.981331,27.891628 27.070770,25.521521 26.958900,23.160950 
	C26.816078,20.147177 28.211655,18.918669 31.139362,19.025188 
	C33.297836,19.103722 35.503754,18.748112 37.610092,19.081514 
	C38.998703,19.301311 40.248062,20.400839 41.559772,21.106457 
	C40.526852,21.992815 39.545708,22.952831 38.437363,23.731897 
	C37.944180,24.078564 37.194645,24.060534 36.561462,24.208035 
	C35.997139,24.827763 35.432816,25.447489 34.868492,26.067217 
	C36.880180,27.256096 38.784943,28.718220 40.932945,29.558746 
	C43.182838,30.439146 45.981155,31.619923 47.931282,30.935543 
	C49.129154,30.515160 49.252048,26.855692 49.716175,24.621294 
	C49.867207,23.894209 49.570652,23.074152 49.790764,22.094673 
	C50.745991,24.970474 51.389259,28.048223 52.083977,31.548346 
	C51.552891,33.786224 50.970356,35.601730 49.817589,37.698868 
	C49.007507,37.977676 48.767662,37.974854 48.572495,37.598122 
	C42.549271,36.219357 37.092381,34.119835 33.348461,28.850498 
	C33.023655,28.393356 32.353840,28.181355 31.407240,27.575993 
	C31.293026,28.828682 31.161045,29.594362 31.162849,30.359724 
	C31.186300,40.302860 31.888065,38.965778 22.225046,39.024624 
	C20.474907,39.035282 18.716562,37.698666 16.962006,36.984032 
	C18.530537,36.177540 20.109024,35.389252 21.656004,34.543346 
	C21.868326,34.427250 21.924006,34.024685 22.087963,33.679466 
	C20.031290,31.561726 18.202579,29.071806 15.793522,27.437187 
	C14.455974,26.529619 11.878711,26.442841 10.365636,27.118309 
	C9.153058,27.659628 8.308628,29.833475 8.010929,31.416378 
	C7.619086,33.499851 7.922893,35.714157 7.927588,37.872208 
	C7.234920,34.906391 6.542251,31.940573 5.844968,28.552029 
	C6.249737,26.176668 6.659122,24.224031 7.632858,22.037292 
	C8.494313,21.857157 8.791419,21.911123 9.088524,21.965092 
z"/>
<path fill="#EEEEEE" opacity="1.000000" stroke="none" 
	d="
M9.166532,21.632050 
	C8.791419,21.911123 8.494313,21.857157 7.756700,21.688948 
	C10.232669,11.912010 17.913202,5.887795 25.299347,7.687115 
	C24.598175,8.046922 24.043455,8.331575 23.243534,8.805468 
	C16.123108,10.535669 12.042342,15.200288 9.166532,21.632050 
z"/>
<path fill="#ECECEC" opacity="1.000000" stroke="none" 
	d="
M33.266342,52.077873 
	C29.253122,51.804104 25.552084,51.389854 21.428658,50.970322 
	C17.355158,48.191174 13.704043,45.417316 9.971642,42.302132 
	C9.890357,41.960808 9.977679,42.194073 10.444904,42.147919 
	C11.888885,42.624584 13.067292,42.948376 13.810657,43.701550 
	C20.044016,50.017136 27.530041,51.197304 35.866680,49.677689 
	C35.935757,50.328117 35.961826,50.588455 35.987900,50.848793 
	C35.184776,51.211658 34.381649,51.574528 33.266342,52.077873 
z"/>
<path fill="#E6E6E6" opacity="1.000000" stroke="none" 
	d="
M36.340847,50.839539 
	C35.961826,50.588455 35.935757,50.328117 36.135941,49.527401 
	C40.417404,45.315353 44.472610,41.643692 48.527817,37.972027 
	C48.767662,37.974854 49.007507,37.977676 49.607079,37.987213 
	C47.833305,44.641476 42.826241,48.317715 36.340847,50.839539 
z"/>
<path fill="#9B9B9B" opacity="1.000000" stroke="none" 
	d="
M7.792909,8.093771 
	C7.759957,8.074797 7.980318,7.958045 7.980318,7.958045 
	C7.980318,7.958045 7.734177,8.070614 7.780703,8.129697 
	C7.827229,8.188780 7.825861,8.112744 7.792909,8.093771 
z"/>
<path fill="#A7A7A7" opacity="1.000000" stroke="none" 
	d="
M48.572495,37.598122 
	C44.472610,41.643692 40.417404,45.315353 36.092937,49.137306 
	C27.530041,51.197304 20.044016,50.017136 13.810657,43.701550 
	C13.067292,42.948376 11.888885,42.624584 10.564192,42.112144 
	C9.666316,40.815647 9.116380,39.508774 8.247015,38.037056 
	C7.922893,35.714157 7.619086,33.499851 8.010929,31.416378 
	C8.308628,29.833475 9.153058,27.659628 10.365636,27.118309 
	C11.878711,26.442841 14.455974,26.529619 15.793522,27.437187 
	C18.202579,29.071806 20.031290,31.561726 22.087963,33.679466 
	C21.924006,34.024685 21.868326,34.427250 21.656004,34.543346 
	C20.109024,35.389252 18.530537,36.177540 16.962006,36.984032 
	C18.716562,37.698666 20.474907,39.035282 22.225046,39.024624 
	C31.888065,38.965778 31.186300,40.302860 31.162849,30.359724 
	C31.161045,29.594362 31.293026,28.828682 31.407240,27.575993 
	C32.353840,28.181355 33.023655,28.393356 33.348461,28.850498 
	C37.092381,34.119835 42.549271,36.219357 48.572495,37.598122 
z"/>
</svg>