<svg version="1.1" id="Layer_1" xmlns="http://www.w3.org/2000/svg" xmlns:xlink="http://www.w3.org/1999/xlink" x="0px" y="0px"
	 width="100%" viewBox="0 0 50 50" enable-background="new 0 0 50 50" xml:space="preserve">
<path fill="#8346E5" opacity="1.000000" stroke="none" 
	d="
M51.000000,21.000000 
	C51.000000,24.030594 51.000000,27.061186 50.999500,30.917915 
	C50.086922,33.836658 49.174843,35.929264 48.082500,38.321236 
	C44.262653,42.073975 40.623070,45.527355 36.623581,49.013306 
	C34.509113,49.697250 32.754555,50.348625 31.000000,51.000000 
	C27.969406,51.000000 24.938814,51.000000 21.175678,50.787285 
	C18.630405,50.044930 16.817675,49.515282 14.839365,48.732662 
	C13.807115,47.979595 12.940445,47.479504 11.937992,46.659687 
	C5.780765,42.493618 3.266941,36.328415 1.000000,30.000000 
	C1.000000,27.299986 1.000000,24.599974 1.000500,21.069736 
	C5.380434,10.966486 11.755669,3.871777 22.000000,1.000000 
	C24.700014,1.000000 27.400026,1.000000 30.826036,1.214691 
	C35.951134,4.356021 40.840584,6.772206 44.590614,10.374527 
	C47.471237,13.141682 48.916447,17.403099 51.000000,21.000000 
M22.956066,31.725628 
	C23.348837,32.802898 23.741608,33.880165 24.747522,35.257065 
	C26.302900,36.421661 27.779070,37.715424 29.428396,38.726810 
	C34.527462,41.853638 42.393253,37.101578 43.141529,31.192225 
	C43.895840,25.235243 39.214291,21.070911 31.509378,20.422995 
	C30.287394,19.292786 29.065407,18.162579 27.231762,16.728039 
	C24.843561,15.335340 22.570484,13.666776 20.041513,12.611402 
	C15.713663,10.805330 9.250885,15.299399 9.001194,20.046980 
	C8.629044,27.123026 11.852391,30.649532 20.288033,31.738440 
	C20.546534,31.576725 20.787849,31.392500 21.425251,31.030237 
	C21.425251,31.030237 21.862299,30.967243 22.381823,30.998587 
	C22.555220,31.004156 22.728619,31.009726 22.956066,31.725628 
z"/>
<path fill="#F9F4FA" opacity="1.000000" stroke="none" 
	d="
M21.531088,1.000000 
	C11.755669,3.871777 5.380434,10.966486 1.000500,20.619759 
	C1.000000,14.405403 1.000000,7.810807 1.000000,1.000000 
	C7.685847,1.000000 14.374011,1.000000 21.531088,1.000000 
z"/>
<path fill="#F8F4FA" opacity="1.000000" stroke="none" 
	d="
M51.000000,20.530956 
	C48.916447,17.403099 47.471237,13.141682 44.590614,10.374527 
	C40.840584,6.772206 35.951134,4.356021 31.276016,1.214691 
	C37.592728,1.000000 44.185455,1.000000 51.000000,1.000000 
	C51.000000,7.352261 51.000000,13.707088 51.000000,20.530956 
z"/>
<path fill="#F7F6F8" opacity="1.000000" stroke="none" 
	d="
M36.983486,48.980736 
	C40.623070,45.527355 44.262653,42.073975 48.424721,38.317436 
	C49.631466,38.009518 50.315735,38.004761 51.000000,38.000000 
	C51.000000,42.256298 51.000000,46.512596 51.000000,51.000000 
	C46.986248,51.000000 42.969788,51.000000 38.400772,50.724007 
	C37.559978,49.958920 37.271732,49.469830 36.983486,48.980736 
z"/>
<path fill="#F8F6F7" opacity="1.000000" stroke="none" 
	d="
M12.073775,46.979408 
	C12.940445,47.479504 13.807115,47.979595 14.662508,48.955902 
	C14.434155,49.954742 14.217078,50.477371 14.000000,51.000000 
	C9.752580,51.000000 5.505159,51.000000 1.000000,51.000000 
	C1.000000,47.657841 1.000000,44.311874 1.303625,40.616016 
	C4.833410,42.913425 6.914014,47.346737 12.073775,46.979408 
z"/>
<path fill="#FAF3FD" opacity="1.000000" stroke="none" 
	d="
M11.937992,46.659687 
	C6.914014,47.346737 4.833410,42.913425 1.303625,40.133060 
	C1.000000,36.969406 1.000000,33.938812 1.000000,30.454109 
	C3.266941,36.328415 5.780765,42.493618 11.937992,46.659687 
z"/>
<path fill="#F9F1FE" opacity="1.000000" stroke="none" 
	d="
M51.000000,37.562500 
	C50.315735,38.004761 49.631466,38.009518 48.604980,38.018074 
	C49.174843,35.929264 50.086922,33.836658 50.999500,31.372025 
	C51.000000,33.041668 51.000000,35.083332 51.000000,37.562500 
z"/>
<path fill="#F9EFFE" opacity="1.000000" stroke="none" 
	d="
M14.437500,51.000000 
	C14.217078,50.477371 14.434155,49.954742 14.828089,49.208874 
	C16.817675,49.515282 18.630405,50.044930 20.721569,50.787285 
	C18.958334,51.000000 16.916666,51.000000 14.437500,51.000000 
z"/>
<path fill="#FAEFFE" opacity="1.000000" stroke="none" 
	d="
M36.623581,49.013306 
	C37.271732,49.469830 37.559978,49.958920 37.924110,50.724007 
	C35.958332,51.000000 33.916668,51.000000 31.437500,51.000000 
	C32.754555,50.348625 34.509113,49.697250 36.623581,49.013306 
z"/>
<path fill="#FFF5FF" opacity="1.000000" stroke="none" 
	d="
M19.890720,31.960678 
	C11.852391,30.649532 8.629044,27.123026 9.001194,20.046980 
	C9.250885,15.299399 15.713663,10.805330 20.041513,12.611402 
	C22.570484,13.666776 24.843561,15.335340 27.596123,17.255356 
	C26.983480,19.269733 26.006479,20.756794 24.709667,22.042988 
	C24.253223,21.371109 24.233788,20.814194 23.961454,20.442642 
	C21.739414,17.411047 19.187380,15.945089 15.291990,17.846645 
	C11.858819,19.522564 12.358659,22.630922 13.518066,24.514578 
	C15.268768,27.358889 18.526049,27.943218 21.728556,26.094051 
	C22.835297,25.455006 23.924847,24.786188 25.340191,23.978020 
	C27.768972,22.824207 29.879810,21.823343 31.990648,20.822479 
	C39.214291,21.070911 43.895840,25.235243 43.141529,31.192225 
	C42.393253,37.101578 34.527462,41.853638 29.428396,38.726810 
	C27.779070,37.715424 26.302900,36.421661 24.402073,34.875912 
	C24.056623,34.494759 24.145510,34.033894 24.341183,33.784184 
	C24.703772,32.708630 24.870689,31.882784 25.221577,30.888081 
	C25.676426,30.516939 25.898022,30.270369 26.374699,30.132214 
	C29.110062,32.009514 31.366776,34.250122 34.071697,35.163742 
	C34.954254,35.461834 37.528198,32.520603 38.314922,30.637407 
	C38.751556,29.592228 37.474297,27.220055 36.304161,26.242111 
	C33.885189,24.220457 31.209642,24.587681 28.630619,26.949867 
	C27.849495,27.319937 27.375206,27.644173 26.945101,27.979904 
	C26.989283,27.991398 27.012100,27.902988 26.750347,27.996857 
	C26.302794,28.396963 26.116995,28.703199 25.957111,28.985004 
	C25.983028,28.960569 25.933304,28.909557 25.591087,28.934486 
	C24.120012,29.628691 22.991156,30.297966 21.862299,30.967243 
	C21.862299,30.967243 21.425251,31.030237 20.964535,31.104923 
	C20.299452,31.439966 20.095087,31.700323 19.890720,31.960678 
z"/>
<path fill="#7E4ECD" opacity="1.000000" stroke="none" 
	d="
M31.750013,20.622738 
	C29.879810,21.823343 27.768972,22.824207 25.334213,23.663355 
	C25.016685,23.082378 25.023081,22.663115 25.029476,22.243853 
	C26.006479,20.756794 26.983480,19.269733 27.901951,17.407524 
	C29.065407,18.162579 30.287394,19.292786 31.750013,20.622738 
z"/>
<path fill="#8050D3" opacity="1.000000" stroke="none" 
	d="
M22.122061,30.982914 
	C22.991156,30.297966 24.120012,29.628691 25.630245,29.201351 
	C26.031193,29.622026 26.050766,29.800768 26.070341,29.979509 
	C25.898022,30.270369 25.676426,30.516939 24.999634,30.875668 
	C24.593719,31.032116 24.149878,31.058428 23.837944,31.046745 
	C23.318014,31.028475 23.110018,31.021887 22.902020,31.015297 
	C22.728619,31.009726 22.555220,31.004156 22.122061,30.982914 
z"/>
<path fill="#7A4FC5" opacity="1.000000" stroke="none" 
	d="
M22.929043,31.370462 
	C23.110018,31.021887 23.318014,31.028475 23.794376,31.417912 
	C24.090330,32.545139 24.117920,33.289516 24.145508,34.033894 
	C24.145510,34.033894 24.056623,34.494759 24.095501,34.726097 
	C23.741608,33.880165 23.348837,32.802898 22.929043,31.370462 
z"/>
<path fill="#8050D3" opacity="1.000000" stroke="none" 
	d="
M20.089376,31.849560 
	C20.095087,31.700323 20.299452,31.439966 20.757900,31.182686 
	C20.787849,31.392500 20.546534,31.576725 20.089376,31.849560 
z"/>
<path fill="#8346E1" opacity="1.000000" stroke="none" 
	d="
M24.709667,22.042988 
	C25.023081,22.663115 25.016685,23.082378 25.016270,23.816305 
	C23.924847,24.786188 22.835297,25.455006 21.728556,26.094051 
	C18.526049,27.943218 15.268768,27.358889 13.518066,24.514578 
	C12.358659,22.630922 11.858819,19.522564 15.291990,17.846645 
	C19.187380,15.945089 21.739414,17.411047 23.961454,20.442642 
	C24.233788,20.814194 24.253223,21.371109 24.709667,22.042988 
z"/>
<path fill="#8346E4" opacity="1.000000" stroke="none" 
	d="
M26.374699,30.132214 
	C26.050766,29.800768 26.031193,29.622026 25.972462,29.176422 
	C25.933304,28.909557 25.983028,28.960569 26.153679,28.817099 
	C26.553587,28.416748 26.782843,28.159868 27.012100,27.902988 
	C27.012100,27.902988 26.989283,27.991398 27.228386,27.905306 
	C27.957478,27.514153 28.447466,27.209091 28.937454,26.904032 
	C31.209642,24.587681 33.885189,24.220457 36.304161,26.242111 
	C37.474297,27.220055 38.751556,29.592228 38.314922,30.637407 
	C37.528198,32.520603 34.954254,35.461834 34.071697,35.163742 
	C31.366776,34.250122 29.110062,32.009514 26.374699,30.132214 
z"/>
<path fill="#CCB0FE" opacity="1.000000" stroke="none" 
	d="
M24.341183,33.784184 
	C24.117920,33.289516 24.090330,32.545139 24.106308,31.429596 
	C24.149878,31.058428 24.593719,31.032116 24.815662,31.044527 
	C24.870689,31.882784 24.703772,32.708630 24.341183,33.784184 
z"/>
<path fill="#7A49CB" opacity="1.000000" stroke="none" 
	d="
M28.630619,26.949867 
	C28.447466,27.209091 27.957478,27.514153 27.184204,27.893810 
	C27.375206,27.644173 27.849495,27.319937 28.630619,26.949867 
z"/>
<path fill="#7A49CB" opacity="1.000000" stroke="none" 
	d="
M26.750347,27.996857 
	C26.782843,28.159868 26.553587,28.416748 26.127762,28.841534 
	C26.116995,28.703199 26.302794,28.396963 26.750347,27.996857 
z"/>
</svg>