<?xml version="1.0" standalone="no"?>
<!DOCTYPE svg PUBLIC "-//W3C//DTD SVG 20010904//EN"
 "http://www.w3.org/TR/2001/REC-SVG-20010904/DTD/svg10.dtd">
<svg version="1.0" xmlns="http://www.w3.org/2000/svg"
 width="512.000000pt" height="512.000000pt" viewBox="0 0 512.000000 512.000000"
 preserveAspectRatio="xMidYMid meet">

<g transform="translate(0.000000,512.000000) scale(0.100000,-0.100000)"
fill="#000000" stroke="none">
<path d="M2415 4870 c-573 -39 -1088 -272 -1490 -675 -569 -568 -792 -1348
-620 -2162 120 -565 491 -1091 1005 -1426 108 -70 317 -174 444 -221 256 -96
511 -140 806 -140 384 0 706 75 1043 245 231 115 428 261 618 455 345 354 560
792 636 1294 24 158 24 482 0 640 -60 398 -206 751 -440 1067 -92 124 -275
316 -392 410 -459 371 -1029 553 -1610 513z m199 -882 c24 -46 223 -398 440
-783 269 -475 391 -702 383 -706 -7 -4 -206 -81 -444 -172 l-432 -166 -442
169 c-243 93 -443 171 -445 173 -5 5 879 1567 887 1567 4 0 28 -37 53 -82z
m-521 -1965 c342 -131 465 -174 485 -169 15 3 248 91 517 194 270 104 492 188
494 186 5 -4 -1020 -1184 -1029 -1184 -8 0 -1030 1175 -1030 1185 0 2 23 -5
52 -16 29 -11 258 -99 511 -196z"/>
</g>
</svg>
